<svg xmlns="http://www.w3.org/2000/svg" xmlns:vectornator="http://vectornator.io" xmlns:xlink="http://www.w3.org/1999/xlink" height="714.2350370410028pt" stroke-miterlimit="10" style="fill-rule:nonzero;clip-rule:evenodd;stroke-linecap:round;stroke-linejoin:round;" viewBox="0 0 1025.88 714.235" width="1025.877701171759pt" xml:space="preserve"><defs></defs><g id="Untitled" vectornator:layerName="Untitled"><path d="M625.094 465.491L625.094 471.813L633.674 471.813L633.674 497.877L641.565 497.877L641.565 471.813L650.145 471.813L650.145 465.491L625.094 465.491Z" fill="#edaa1e" fill-rule="nonzero" opacity="1" stroke="none" vectornator:layerName="path"></path><path d="M669.425 498.202C672.468 498.202 675.254 497.493 677.774 496.079C680.297 494.665 682.296 492.689 683.772 490.15C685.248 487.615 685.987 484.76 685.987 481.593C685.987 478.426 685.256 475.578 683.796 473.059C682.335 470.535 680.336 468.567 677.797 467.153C675.262 465.739 672.468 465.03 669.425 465.03C666.381 465.03 663.588 465.739 661.053 467.153C658.514 468.567 656.499 470.535 655.008 473.059C653.516 475.578 652.769 478.426 652.769 481.593C652.769 484.76 653.516 487.615 655.008 490.15C656.499 492.689 658.514 494.665 661.053 496.079C663.588 497.493 666.381 498.202 669.425 498.202M669.425 491.005C666.809 491.005 664.724 490.15 663.172 488.443C661.619 486.736 660.845 484.451 660.845 481.593C660.845 478.703 661.619 476.411 663.172 474.719C664.724 473.028 666.809 472.18 669.425 472.18C672.01 472.18 674.075 473.036 675.631 474.742C677.184 476.449 677.958 478.734 677.958 481.593C677.958 484.425 677.184 486.698 675.631 488.42C674.075 490.146 672.01 491.005 669.425 491.005" fill="#edaa1e" fill-rule="nonzero" opacity="1" stroke="none" vectornator:layerName="path"></path><path d="M690.224 465.491L690.224 484.82C690.224 487.714 690.81 490.168 691.977 492.179C693.144 494.194 694.739 495.705 696.75 496.702C698.765 497.7 701.05 498.201 703.605 498.201C706.155 498.201 708.471 497.693 710.547 496.679C712.624 495.666 714.277 494.156 715.505 492.156C716.735 490.16 717.351 487.714 717.351 484.82L717.351 465.491L709.465 465.491L709.465 484.867C709.465 486.805 708.971 488.299 707.985 489.344C707.003 490.388 705.589 490.912 703.743 490.912C701.898 490.912 700.495 490.388 699.544 489.344C698.588 488.299 698.114 486.805 698.114 484.867L698.114 465.491L690.224 465.491Z" fill="#edaa1e" fill-rule="nonzero" opacity="1" stroke="none" vectornator:layerName="path"></path><path d="M748.303 497.879L740.828 485.053C743.198 484.344 744.99 483.146 746.203 481.455C747.416 479.763 748.025 477.841 748.025 475.687C748.025 473.78 747.578 472.05 746.688 470.497C745.795 468.945 744.45 467.723 742.651 466.83C740.852 465.94 738.675 465.493 736.124 465.493L722.882 465.493L722.882 497.879L730.773 497.879L730.773 485.654L732.66 485.654L739.399 497.879L748.303 497.879ZM730.773 472.042L735.662 472.042C737.107 472.042 738.189 472.397 738.914 473.106C739.638 473.811 740 474.782 740 476.011C740 477.301 739.638 478.303 738.914 479.008C738.189 479.717 737.107 480.071 735.662 480.071L730.773 480.071L730.773 472.042Z" fill="#edaa1e" fill-rule="nonzero" opacity="1" stroke="none" vectornator:layerName="path"></path><path d="M780.425 465.491L772.535 465.491L772.535 497.877L790.758 497.877L790.758 491.79L780.425 491.79L780.425 465.491Z" fill="#edaa1e" fill-rule="nonzero" opacity="1" stroke="none" vectornator:layerName="path"></path><path d="M809.855 498.202C812.898 498.202 815.684 497.493 818.204 496.079C820.727 494.665 822.726 492.689 824.202 490.15C825.678 487.615 826.417 484.76 826.417 481.593C826.417 478.426 825.686 475.578 824.226 473.059C822.765 470.535 820.766 468.567 818.227 467.153C815.692 465.739 812.898 465.03 809.855 465.03C806.811 465.03 804.018 465.739 801.483 467.153C798.944 468.567 796.929 470.535 795.438 473.059C793.946 475.578 793.199 478.426 793.199 481.593C793.199 484.76 793.946 487.615 795.438 490.15C796.929 492.689 798.944 494.665 801.483 496.079C804.018 497.493 806.811 498.202 809.855 498.202M809.855 491.005C807.239 491.005 805.154 490.15 803.602 488.443C802.049 486.736 801.275 484.451 801.275 481.593C801.275 478.703 802.049 476.411 803.602 474.719C805.154 473.028 807.239 472.18 809.855 472.18C812.44 472.18 814.505 473.036 816.061 474.742C817.614 476.449 818.388 478.734 818.388 481.593C818.388 484.425 817.614 486.698 816.061 488.42C814.505 490.146 812.44 491.005 809.855 491.005" fill="#edaa1e" fill-rule="nonzero" opacity="1" stroke="none" vectornator:layerName="path"></path><path d="M861.012 475.734C860.148 472.413 858.388 469.812 855.729 467.936C853.067 466.06 849.8 465.123 845.924 465.123C842.726 465.123 839.883 465.821 837.39 467.223C834.898 468.622 832.952 470.575 831.554 473.079C830.155 475.588 829.454 478.443 829.454 481.64C829.454 484.838 830.155 487.682 831.554 490.174C832.952 492.667 834.906 494.613 837.414 496.011C839.918 497.41 842.773 498.111 845.971 498.111C848.679 498.111 851.106 497.587 853.26 496.543C855.414 495.495 857.19 494.127 858.588 492.436C859.987 490.744 860.981 488.914 861.567 486.946L861.567 479.61L844.403 479.61L844.403 485.424L854.416 485.424C853.799 487.269 852.821 488.683 851.484 489.666C850.147 490.652 848.509 491.145 846.572 491.145C843.74 491.145 841.52 490.305 839.903 488.629C838.288 486.953 837.483 484.622 837.483 481.64C837.483 478.839 838.25 476.605 839.791 474.925C841.328 473.249 843.374 472.413 845.924 472.413C847.4 472.413 848.687 472.698 849.777 473.264C850.867 473.835 851.707 474.659 852.293 475.734L861.012 475.734Z" fill="#edaa1e" fill-rule="nonzero" opacity="1" stroke="none" vectornator:layerName="path"></path><path d="M865.942 497.877L873.832 497.877L873.832 465.491L865.942 465.491L865.942 497.877Z" fill="#edaa1e" fill-rule="nonzero" opacity="1" stroke="none" vectornator:layerName="path"></path><path d="M891.267 498.202C893.698 498.202 895.801 497.755 897.589 496.865C899.369 495.971 900.733 494.773 901.669 493.267C902.609 491.76 903.08 490.08 903.08 488.235C903.08 486.297 902.602 484.713 901.646 483.484C900.694 482.255 899.562 481.315 898.256 480.672C896.95 480.025 895.251 479.347 893.159 478.641C891.067 477.963 889.529 477.332 888.547 476.75C887.561 476.164 887.068 475.351 887.068 474.303C887.068 473.352 887.36 472.62 887.946 472.111C888.527 471.606 889.298 471.352 890.254 471.352C891.36 471.352 892.264 471.649 892.974 472.25C893.683 472.851 894.064 473.675 894.126 474.719L902.663 474.719C902.509 471.672 901.338 469.298 899.157 467.592C896.973 465.885 894.095 465.03 890.527 465.03C887.021 465.03 884.178 465.885 881.993 467.592C879.809 469.298 878.719 471.66 878.719 474.673C878.719 476.704 879.196 478.349 880.147 479.609C881.099 480.872 882.24 481.824 883.561 482.471C884.883 483.115 886.59 483.762 888.682 484.409C890.13 484.837 891.244 485.222 892.03 485.561C892.812 485.9 893.475 486.332 894.014 486.852C894.549 487.376 894.819 488.038 894.819 488.836C894.819 489.791 894.48 490.535 893.806 491.074C893.128 491.614 892.203 491.88 891.036 491.88C889.899 491.88 888.974 491.568 888.27 490.936C887.561 490.304 887.145 489.391 887.021 488.189L878.626 488.189C878.688 490.312 879.277 492.126 880.402 493.633C881.523 495.143 883.022 496.279 884.899 497.05C886.775 497.817 888.897 498.202 891.267 498.202" fill="#edaa1e" fill-rule="nonzero" opacity="1" stroke="none" vectornator:layerName="path"></path><path d="M906.163 465.491L906.163 471.813L914.743 471.813L914.743 497.877L922.633 497.877L922.633 471.813L931.214 471.813L931.214 465.491L906.163 465.491Z" fill="#edaa1e" fill-rule="nonzero" opacity="1" stroke="none" vectornator:layerName="path"></path><path d="M935.177 497.877L943.068 497.877L943.068 465.491L935.177 465.491L935.177 497.877Z" fill="#edaa1e" fill-rule="nonzero" opacity="1" stroke="none" vectornator:layerName="path"></path><path d="M947.446 481.639C947.446 484.837 948.14 487.684 949.522 490.173C950.906 492.666 952.836 494.611 955.313 496.01C957.787 497.412 960.595 498.11 963.731 498.11C967.577 498.11 970.867 497.104 973.606 495.089C976.342 493.074 978.172 490.312 979.097 486.806L970.42 486.806C969.777 488.162 968.86 489.19 967.677 489.896C966.494 490.604 965.146 490.959 963.639 490.959C961.208 490.959 959.239 490.111 957.733 488.42C956.226 486.729 955.475 484.471 955.475 481.639C955.475 478.811 956.226 476.549 957.733 474.858C959.239 473.167 961.208 472.319 963.639 472.319C965.146 472.319 966.494 472.674 967.677 473.383C968.86 474.088 969.777 475.12 970.42 476.472L979.097 476.472C978.172 472.966 976.342 470.196 973.606 468.166C970.867 466.135 967.577 465.122 963.731 465.122C960.595 465.122 957.787 465.823 955.313 467.222C952.836 468.62 950.906 470.574 949.522 473.082C948.14 475.586 947.446 478.441 947.446 481.639" fill="#edaa1e" fill-rule="nonzero" opacity="1" stroke="none" vectornator:layerName="path"></path><path d="M995.651 498.202C998.082 498.202 1000.19 497.755 1001.97 496.865C1003.75 495.971 1005.12 494.773 1006.05 493.267C1006.99 491.76 1007.46 490.08 1007.46 488.235C1007.46 486.297 1006.99 484.713 1006.03 483.484C1005.08 482.255 1003.95 481.315 1002.64 480.672C1001.33 480.025 999.635 479.347 997.542 478.641C995.451 477.963 993.914 477.332 992.931 476.75C991.945 476.164 991.452 475.351 991.452 474.303C991.452 473.352 991.745 472.62 992.33 472.111C992.912 471.606 993.682 471.352 994.638 471.352C995.744 471.352 996.649 471.649 997.358 472.25C998.066 472.851 998.448 473.675 998.51 474.719L1007.05 474.719C1006.89 471.672 1005.72 469.298 1003.54 467.592C1001.36 465.885 998.479 465.03 994.912 465.03C991.405 465.03 988.562 465.885 986.377 467.592C984.193 469.298 983.103 471.66 983.103 474.673C983.103 476.704 983.58 478.349 984.532 479.609C985.484 480.872 986.624 481.824 987.945 482.471C989.267 483.115 990.974 483.762 993.066 484.409C994.515 484.837 995.628 485.222 996.414 485.561C997.196 485.9 997.859 486.332 998.398 486.852C998.934 487.376 999.204 488.038 999.204 488.836C999.204 489.791 998.864 490.535 998.19 491.074C997.512 491.614 996.587 491.88 995.42 491.88C994.283 491.88 993.359 491.568 992.654 490.936C991.945 490.304 991.529 489.391 991.405 488.189L983.01 488.189C983.072 490.312 983.661 492.126 984.786 493.633C985.907 495.143 987.406 496.279 989.286 497.05C991.159 497.817 993.281 498.202 995.651 498.202" fill="#edaa1e" fill-rule="nonzero" opacity="1" stroke="none" vectornator:layerName="path"></path><path d="M432.152 692.63C406.527 702.46 378.258 694.359 361.602 672.556L361.479 672.5L358.274 672.487L358.252 672.5L358.243 672.538C366.327 683.797 376.76 691.633 389.516 696.049C407.468 702.259 427.804 699.884 443.898 689.72C469.874 673.339 480.44 640.542 468.796 612.084C453.065 573.651 404.888 560.411 371.757 585.629C349.36 602.665 340.916 632.385 350.912 658.742L351.131 658.934L351.957 659.131L352.137 659.11L353.531 658.425L353.609 658.22C343.031 630.994 353.091 600.573 377.603 584.842C394.314 574.118 415.745 572.449 434 580.276C452.685 588.278 466.352 605.374 469.896 625.543C474.885 653.902 459.065 682.291 432.152 692.63M406.929 636.588C410.186 630.079 411.739 621.944 407.083 615.615L407.066 615.572L407.152 615.486L407.182 615.495C410.957 617.159 413.661 621.927 415.061 625.581L415.116 625.62L415.159 625.581C417.932 618.388 423.003 613.608 430.384 611.254C430.791 611.117 430.834 611.198 430.521 611.481C422.78 618.507 417.444 628.269 416.597 638.796L416.605 638.804L416.699 638.813L416.768 638.757C417.983 632.351 421.051 627.01 425.964 622.748L426.033 622.727L426.131 622.825L426.123 622.872C421.313 632.937 420.306 645.861 428.955 654.39L428.985 654.42L429.276 654.36L429.298 654.321C431.095 649.926 434.749 645.887 439.392 644.522L439.508 644.158C437.809 642.125 435.866 640.349 433.688 638.851L433.645 638.774L433.743 638.685L433.753 638.685C437.095 639.078 440.274 640.032 443.282 641.547L443.351 641.569L443.967 641.256L443.984 641.188C444.143 640.311 443.996 639.613 443.557 639.108C442.157 637.486 440.693 636.177 439.178 635.175C438.584 634.777 438.622 634.688 439.308 634.897C442.089 635.766 444.815 636.772 447.485 637.914L447.561 637.931L447.728 637.837C449.304 635.334 447.151 633.622 444.982 632.039C441.456 629.463 437.711 627.43 433.726 625.953C433.294 625.795 432.922 625.641 432.61 625.496L432.648 625.329C433.851 625.367 435.16 625.496 436.577 625.701C440.578 626.283 443.92 626.814 446.595 627.293L446.809 627.194C452.595 617.527 452.838 606.054 447.365 596.225L447.258 596.165L447.189 596.186C443.71 598.904 439.786 600.65 435.425 601.407C434.723 601.531 434.702 601.463 435.366 601.202C439.371 599.657 443.06 597.547 446.428 594.877L446.556 594.611L446.509 594.427C445.148 592.258 443.214 592.305 441.211 593.46C439.667 594.359 438.028 595.082 436.315 595.621L436.303 595.621L436.226 595.549L436.256 595.493C438.601 593.978 440.633 592.121 442.346 589.913L442.354 589.609C441.652 588.582 440.741 587.97 439.611 587.79C439.02 587.696 438.083 587.812 436.813 588.145C433.384 589.044 429.905 589.716 426.379 590.14C422.46 590.623 418.805 591.856 415.42 593.841L415.458 594.008C421.009 594.74 425.759 597.076 429.7 601.013L429.717 601.06L429.661 601.112L429.639 601.103C422.742 597.671 415.107 595.951 407.426 596.088C398.144 596.246 388.481 600.106 383.007 607.895L382.995 607.95L383.085 608.04L383.123 608.031C384.754 607.317 386.457 607.052 388.246 607.231L388.305 607.257L388.323 607.424L388.275 607.454C387.129 607.933 385.888 608.391 384.93 608.969C381.488 611.061 378.335 614.54 377.307 618.43C376.49 621.477 376.939 624.768 377.868 627.721L377.8 627.973C373.387 631.962 370.546 637.692 370.371 643.679L370.529 643.867C371.629 644.042 372.562 644.522 373.35 645.305L373.392 645.407L373.251 645.557L373.234 645.549C370.94 645.305 369.724 646.302 369.579 648.536L369.716 648.724C370.529 648.916 371.253 649.28 371.877 649.836L371.916 649.922L371.839 650.025C370.234 650.637 369.434 651.831 369.434 653.607L369.549 653.718L371.337 653.714L371.543 653.919L371.467 654.086C370.217 655.104 369.669 656.444 369.824 658.087L370.012 658.19C370.871 657.711 373.225 656.161 373.097 655.173C372.699 652.263 372.942 649.289 374.428 646.798C375.257 645.412 377.042 643.995 378.091 642.741C379.361 641.235 380.192 639.69 381.1 638.06L381.206 638.09C381.176 640.418 380.551 642.519 379.332 644.393C378.45 645.741 376.803 647.021 375.844 648.129C374.779 649.379 374.308 650.894 374.436 652.691L374.526 652.712C375.283 651.381 376.362 650.406 377.778 649.789L377.825 649.777L377.937 649.888L377.932 649.926C374.984 659.041 367.568 662.717 358.499 662.807C357.413 662.816 356.33 662.824 355.244 662.824L355.196 662.871L355.234 662.923C359.295 663.5 363.374 663.744 367.47 663.663L367.508 663.693L367.517 663.77L367.47 663.821C358.625 665.255 349.389 664.224 341.426 659.97L341.395 659.961L341.318 660.038L341.336 660.086C347.806 667.583 358.359 669.333 367.606 667.279C373.251 666.012 377.693 662.824 380.937 657.702C382.627 655.027 383.885 652.233 384.689 649.327L384.882 649.13C390.698 647.247 393.881 643.238 394.43 637.101L394.459 637.071L394.498 637.093C396.919 643.542 391.947 647.919 387.309 651.193C386.927 651.467 386.586 652.006 386.307 652.815C386.114 653.337 386.145 653.932 386.388 654.441L387.159 656.02C387.425 656.568 387.646 656.551 387.826 655.973C389.067 651.998 392.816 650.551 395.996 648.437C398.426 646.82 399.881 644.569 400.353 641.684L400.459 641.667C401.418 643.708 401.092 646.417 400.373 648.48L400.48 648.595C409.047 645.968 413.25 637.983 413.097 629.411L413.006 629.385C411.466 632.18 409.48 634.619 407.054 636.69L406.929 636.588ZM393.659 620.694L395.542 618.743L395.61 618.704L395.798 618.807L395.798 618.88L395.281 621.319L395.281 621.34L395.388 621.456L395.448 621.43L397.421 619.962L397.468 619.992C396.774 622.046 395.131 623.463 393.073 624.28C391.558 624.871 390.355 625.436 389.448 625.962C388.789 626.351 388.275 626.54 387.92 626.54C387.168 626.548 386.624 626.15 386.298 625.354C385.635 623.732 385.828 622.085 386.868 620.429L386.876 620.42L386.868 620.412L386.868 620.429L386.886 620.442C386.739 622.004 386.855 623.531 387.236 625.016L387.266 625.055L387.377 625.046L387.394 624.995L387.415 623.441L387.56 623.304L387.685 623.382L388.263 623.852L388.511 623.822C389.2 623.459 389.273 621.82 389.269 621.126C389.234 615.769 393.484 613.346 398.242 612.692L398.303 612.743L398.272 612.799C395.798 613.749 393.385 615.165 392.135 617.609L392.268 617.733C393.65 616.954 395.131 616.483 396.706 616.308L396.727 616.308L396.843 616.423L396.784 616.522C395.29 617.54 394.185 618.888 393.475 620.566L393.659 620.694M375.587 668.529C375.014 669.273 374.248 669.654 373.293 669.667L373.203 669.761L373.225 669.83C374.428 671.19 375.943 671.961 377.766 672.145L377.886 672.273L377.796 672.393C376.682 672.8 375.561 672.834 374.424 672.491L374.389 672.491L374.277 672.598L374.291 672.654C378.866 681.127 386.846 686.827 396.333 687.893C401.418 688.466 406.168 687.568 410.602 685.201C416.896 681.82 419.965 675.919 419.4 668.627L419.369 668.601L419.34 668.627C419.155 671.297 418.813 673.75 417.238 676.035L417.2 676.048L417.148 676.005L417.152 675.988C419.485 670.544 418.869 665.627 414.306 661.819C411.153 659.178 406.694 659.375 403.548 661.874C402.689 662.559 401.738 662.717 400.839 663.381C399.629 664.271 399.226 666.235 401.023 666.77C402.056 667.082 403.253 667.151 404.602 666.98L404.712 666.783C404.477 666.252 404.143 665.803 403.711 665.426L403.784 665.259C405.53 665.383 407.105 666.941 408.042 668.306L408.269 668.336C409.412 667.386 409.663 666.188 409.022 664.759L409.009 664.69L409.185 664.523L409.257 664.536C413.528 666.654 413.289 671.524 410.602 674.794C405.436 681.097 396.612 679.24 391.165 674.289C389.752 673.009 388.605 671.67 387.719 670.262C387.06 669.213 386.927 669.273 387.325 670.454C388.216 673.048 389.641 675.333 391.237 677.729L391.245 677.776L391.177 677.845L391.135 677.832C385.537 673.976 383.405 664.874 382.742 658.592L382.597 658.554C379.828 662.628 376.79 665.666 372.151 667.634L372.147 667.805C373.217 668.276 374.338 668.473 375.51 668.383L375.587 668.529Z" fill="#edaa1e" fill-rule="evenodd" opacity="1" stroke="none" vectornator:layerName="path"></path><path d="M116.658 594.828C116.658 585.931 114.702 578.049 110.796 571.172C106.884 564.299 101.021 558.911 93.2071 555C85.3891 551.093 75.8201 549.137 64.4971 549.137L8.49414 549.137L8.49414 691.062L43.0661 691.062L43.0661 640.116L64.4971 640.116C76.0861 640.116 85.7911 638.028 93.6091 633.847C101.423 629.671 107.222 624.18 110.996 617.372C114.771 610.568 116.658 603.053 116.658 594.828M61.8701 612.622L43.0661 612.622L43.0661 577.034L61.8701 577.034C68.4721 577.034 73.3931 578.588 76.6291 581.686C79.8601 584.789 81.4781 589.166 81.4781 594.828C81.4781 600.49 79.8601 604.872 76.6291 607.97C73.3931 611.072 68.4721 612.622 61.8701 612.622" fill="#edaa1e" fill-rule="nonzero" opacity="1" stroke="none" vectornator:layerName="path"></path><path d="M203.991 577.036C196.443 577.036 189.638 578.521 183.57 581.482C177.506 584.452 172.722 588.428 169.217 593.413L169.217 541.453L134.645 541.453L134.645 691.064L169.217 691.064L169.217 629.805C169.217 622.256 171.169 616.393 175.08 612.217C178.987 608.04 184.242 605.947 190.85 605.947C197.453 605.947 202.708 608.04 206.619 612.217C210.526 616.393 212.482 622.256 212.482 629.805L212.482 691.064L246.853 691.064L246.853 625.153C246.853 610.192 242.942 598.437 235.128 589.874C227.309 581.315 216.932 577.036 203.991 577.036" fill="#edaa1e" fill-rule="nonzero" opacity="1" stroke="none" vectornator:layerName="path"></path><path d="M305.475 597.052L305.475 578.249L270.902 578.249L270.902 691.065L305.475 691.065L305.475 638.699C305.475 629.4 307.627 622.899 311.945 619.189C316.259 615.483 322.725 613.63 331.353 613.63L340.857 613.63L340.857 577.038C333.44 577.038 326.705 578.826 320.637 582.395C314.573 585.969 309.519 590.856 305.475 597.052" fill="#edaa1e" fill-rule="nonzero" opacity="1" stroke="none" vectornator:layerName="path"></path><path d="M554.804 577.036C547.388 577.036 540.716 578.487 534.789 581.384C528.854 584.281 524.138 588.227 520.638 593.212L520.638 578.247L486.064 578.247L486.064 691.064L520.638 691.064L520.638 629.805C520.638 622.256 522.589 616.393 526.5 612.217C530.407 608.04 535.662 605.947 542.269 605.947C548.872 605.947 554.128 608.04 558.039 612.217C561.946 616.393 563.902 622.256 563.902 629.805L563.902 691.064L598.274 691.064L598.274 625.153C598.274 610.192 594.328 598.437 586.445 589.874C578.558 581.315 568.01 577.036 554.804 577.036" fill="#edaa1e" fill-rule="nonzero" opacity="1" stroke="none" vectornator:layerName="path"></path><path d="M728.668 632.837C728.668 621.514 726.271 611.607 721.491 603.117C716.703 594.627 710.07 588.088 701.575 583.505C693.085 578.926 683.38 576.632 672.463 576.632C661.272 576.632 651.366 578.99 642.743 583.71C634.116 588.426 627.41 595.166 622.626 603.926C617.842 612.69 615.449 622.93 615.449 634.656C615.449 646.381 617.876 656.626 622.728 665.386C627.581 674.15 634.317 680.89 642.944 685.606C651.571 690.326 661.409 692.68 672.463 692.68C681.63 692.68 689.919 690.998 697.33 687.626C704.742 684.258 710.909 679.61 715.83 673.675C720.747 667.748 724.149 661.077 726.04 653.66L689.243 653.66C685.874 660.94 679.875 664.577 671.252 664.577C665.454 664.577 660.567 662.728 656.591 659.018C652.615 655.312 650.356 649.954 649.821 642.945L728.06 642.945C728.467 639.444 728.668 636.072 728.668 632.837M650.022 623.739C650.964 617.543 653.424 612.754 657.399 609.386C661.375 606.018 666.262 604.332 672.056 604.332C678.124 604.332 683.179 606.082 687.222 609.587C691.267 613.092 693.287 617.808 693.287 623.739L650.022 623.739Z" fill="#edaa1e" fill-rule="nonzero" opacity="1" stroke="none" vectornator:layerName="path"></path><path d="M792.751 692.682C801.918 692.682 809.967 691.197 816.912 688.236C823.854 685.27 829.173 681.192 832.883 676.001C836.589 670.815 838.442 664.918 838.442 658.31C838.309 650.496 836.251 644.261 832.275 639.609C828.3 634.962 823.682 631.594 818.427 629.502C813.172 627.413 806.364 625.291 798.006 623.134C790.731 621.516 785.373 619.899 781.933 618.281C778.496 616.664 776.781 614.237 776.781 611.002C776.781 608.306 777.855 606.183 780.016 604.634C782.169 603.085 785.271 602.311 789.315 602.311C794.031 602.311 797.835 603.458 800.736 605.747C803.633 608.041 805.354 611.139 805.893 615.046L837.838 615.046C836.623 603.458 831.937 594.154 823.785 587.145C815.628 580.139 804.476 576.635 790.325 576.635C780.752 576.635 772.497 578.184 765.56 581.282C758.614 584.384 753.36 588.595 749.791 593.919C746.217 599.247 744.429 605.139 744.429 611.61C744.429 619.291 746.384 625.393 750.296 629.908C754.202 634.423 758.85 637.727 764.247 639.811C769.634 641.903 776.374 643.893 784.462 645.776C792.011 647.667 797.467 649.384 800.839 650.933C804.207 652.482 805.893 654.874 805.893 658.109C805.893 660.809 804.712 662.996 802.354 664.682C799.996 666.368 796.658 667.207 792.349 667.207C787.629 667.207 783.653 665.996 780.418 663.57C777.183 661.143 775.364 657.977 774.958 654.065L740.791 654.065C741.33 661.344 743.825 667.917 748.271 673.78C752.722 679.643 758.786 684.26 766.467 687.628C774.153 691 782.913 692.682 792.751 692.682" fill="#edaa1e" fill-rule="nonzero" opacity="1" stroke="none" vectornator:layerName="path"></path><path d="M877.052 566.523C882.983 566.523 887.87 564.739 891.709 561.165C895.552 557.596 897.473 553.18 897.473 547.921C897.473 542.533 895.552 538.052 891.709 534.479C887.87 530.91 882.983 529.122 877.052 529.122C870.988 529.122 866.033 530.91 862.194 534.479C858.351 538.052 856.429 542.533 856.429 547.921C856.429 553.18 858.351 557.596 862.194 561.165C866.033 564.739 870.988 566.523 877.052 566.523M859.665 691.065L894.238 691.065L894.238 578.248L859.665 578.248L859.665 691.065Z" fill="#edaa1e" fill-rule="nonzero" opacity="1" stroke="none" vectornator:layerName="path"></path><path d="M965.198 692.682C974.364 692.682 982.414 691.197 989.359 688.236C996.3 685.27 1001.62 681.192 1005.33 676.001C1009.03 670.815 1010.89 664.918 1010.89 658.31C1010.76 650.496 1008.7 644.261 1004.72 639.609C1000.75 634.962 996.129 631.594 990.874 629.502C985.619 627.413 978.81 625.291 970.453 623.134C963.178 621.516 957.82 619.899 954.38 618.281C950.943 616.664 949.227 614.237 949.227 611.002C949.227 608.306 950.302 606.183 952.462 604.634C954.615 603.085 957.718 602.311 961.762 602.311C966.477 602.311 970.282 603.458 973.183 605.747C976.08 608.041 977.8 611.139 978.34 615.046L1010.28 615.046C1009.07 603.458 1004.38 594.154 996.232 587.145C988.075 580.139 976.923 576.635 962.771 576.635C953.199 576.635 944.944 578.184 938.007 581.282C931.061 584.384 925.806 588.595 922.237 593.919C918.664 599.247 916.876 605.139 916.876 611.61C916.876 619.291 918.831 625.393 922.742 629.908C926.649 634.423 931.296 637.727 936.693 639.811C942.08 641.903 948.821 643.893 956.909 645.776C964.457 647.667 969.914 649.384 973.286 650.933C976.654 652.482 978.34 654.874 978.34 658.109C978.34 660.809 977.158 662.996 974.8 664.682C972.443 666.368 969.105 667.207 964.796 667.207C960.076 667.207 956.1 665.996 952.865 663.57C949.63 661.143 947.811 657.977 947.405 654.065L913.238 654.065C913.777 661.344 916.272 667.917 920.718 673.78C925.169 679.643 931.233 684.26 938.914 687.628C946.6 691 955.359 692.682 965.198 692.682" fill="#edaa1e" fill-rule="nonzero" opacity="1" stroke="none" vectornator:layerName="path"></path><path d="M446.618 271.469C463.353 284.489 470.1 303.231 470.392 322.212C470.781 347.272 467.695 372.627 463.599 397.445C459.955 419.528 459.48 440.197 471.94 459.671C482.698 476.477 507.279 487.066 528.525 482.627C550.285 478.082 565.624 465.243 572.88 443.711C573.268 442.557 573.191 441.192 573.079 439.948C573.008 439.176 572.469 438.444 571.393 435.987C566.916 439.233 562.57 442.018 558.642 445.301C546.272 455.646 532.038 460.018 517.613 452.422C503.48 444.981 494.03 432.433 492.071 415.657C489.549 394.067 497.263 375.439 507.498 356.917C519.848 334.571 532.419 312.004 541.34 288.198C553.481 255.796 550.599 222.294 537.939 190.377C521.085 147.884 497.091 109.666 459.456 82.6541C439.069 68.0191 415.86 57.3111 393.889 44.8971C388.414 41.8021 383.027 38.3541 377.187 36.1631C372.183 34.2851 366.594 33.9741 360.765 33.4861C355.02 32.2881 348.359 28.5941 343.689 30.3131C317.662 39.8941 292.005 50.5251 266.464 61.3711C256.43 65.6321 247.186 71.7101 237.298 76.3601C228.528 80.4831 227.632 84.4951 235.295 90.9381C251.309 104.4 266.963 118.289 284.896 133.852C267.717 142.26 252.604 150.123 237.113 157.138C211.887 168.564 207.653 167.957 188.419 148.065C179.731 139.078 172.975 128.252 164.735 118.792C162.052 115.71 157.447 112.478 153.704 112.454C133.884 112.339 113.881 111.853 94.3162 114.399C85.8982 115.495 75.4472 121.748 71.0142 128.846C57.4812 150.489 43.9752 172.751 34.9602 196.482C20.0552 235.715 32.3202 258.223 66.4322 281.246C73.8212 286.236 87.0202 284.867 97.0272 283.239C114.659 280.373 131.796 277.23 149.422 283.158C165.74 288.647 172.422 298.417 174.91 315.502C176.683 327.667 181.009 339.848 186.305 351.021C194.731 368.794 200.178 385.46 190.887 405.219C187.546 412.323 189.43 423.536 192.37 431.624C200.371 453.629 210.343 474.909 219.275 496.584C226.226 513.461 239.236 512.625 257.442 504.126C261.504 502.231 265.934 499.041 267.98 495.249C278.193 476.352 295.552 461.586 297.865 437.848C298.735 428.917 306.444 419.548 313.273 412.562C323.127 402.478 325.375 391.437 325.129 378.079C324.87 363.95 324.455 348.941 328.798 335.877C332.523 324.673 342.465 315.341 350.398 305.793C357.903 296.762 366.527 288.667 374.304 279.847C376.27 277.618 376.89 274.2 379.237 268.762C359.737 271.654 346.336 265.41 335.74 251.588C320.042 231.113 310.211 209.809 309.348 188.014C319.418 202.783 327.847 215.278 336.43 227.665C339.791 232.516 343.507 237.118 347.067 241.831C353.321 250.114 360.998 252.128 371.53 250.586C379.456 249.427 392.489 249.98 395.211 254.552C398.881 260.727 397.611 273.155 393.538 279.938C385.477 293.356 375.147 305.925 363.719 316.68C348.412 331.086 340.438 346.874 343.588 368.168C346.898 390.571 343.156 410.947 324.509 426.58C320.824 429.669 316.458 435.073 316.678 439.176C317.979 463.308 298.555 477.306 289.254 495.998C277.731 519.149 242.084 534.887 218.813 520.928C213.013 517.45 207.93 510.839 205.212 504.51C195.944 482.943 188.156 460.746 179.245 439.021C173.993 426.213 170.204 414.113 176.107 400.041C182.654 384.431 180.681 369.054 171.188 354.345C163.444 342.346 156.313 329.757 157.955 314.317C158.909 305.311 152.608 300.537 145.188 299.738C131.092 298.221 115.593 294.473 102.833 298.491C49.9052 315.166 6.35016 255.33 14.9602 212.153C21.9152 177.292 34.7042 145.177 57.2652 117.298C68.2462 103.732 81.4242 96.2741 99.6632 96.6991C118.172 97.1301 136.752 95.4961 155.272 94.2891C166.363 93.5671 173.207 98.3711 179.016 107.592C185.472 117.834 192.964 127.642 201.257 136.458C212.403 148.309 236.923 145.618 245.712 131.516C247.374 128.855 244.674 121.152 241.623 118.28C228.462 105.87 214.408 94.3961 200.722 82.5391C200.148 82.0401 199.973 81.0831 198.624 78.3011C209.757 71.6531 220.636 63.9521 232.493 58.3091C264.745 42.9521 297.089 27.6971 330.035 13.9251C349.875 5.63114 369.046 6.50414 388.609 19.9221C412.422 36.2541 440.465 46.5531 463.731 63.5081C514.744 100.678 547.89 151.175 564.377 212.311C565.139 215.139 565.116 218.177 565.46 221.117C568.257 245.028 571.761 248.77 596.254 248.877C614.223 248.955 631.404 244.798 646.07 233.389C646.878 234.273 647.684 235.159 648.494 236.042C638.585 245.169 629.931 256.621 618.444 262.811C605.043 270.036 589.048 272.342 574.427 277.474C569.782 279.102 562.968 282.291 562.156 285.896C554.26 320.89 533.347 349.307 516.679 379.934C509.902 392.388 504.828 405.994 511.928 420.953C521.24 440.579 539.486 444.354 552.564 427.069C564.121 411.794 572.789 394.329 582.734 377.833C583.779 376.097 584.835 374.361 586.979 370.817C595.92 402.873 598.806 433.461 584.896 462.185C569.66 493.648 533.91 508.856 496.325 496.449C455.188 482.869 437.511 444.651 448.617 396.753C456.951 360.811 463.617 324.63 451.883 287.999C450.121 282.494 448.374 276.978 446.618 271.469" fill="#edaa1e" fill-rule="nonzero" opacity="1" stroke="none" vectornator:layerName="path"></path><path d="M355.84 444.034C359.43 449.615 360.881 453.429 363.645 455.359C364.699 456.093 369.968 453.156 371.273 450.775C378.642 437.307 385.706 423.644 392.082 409.683C393.373 406.859 391.252 402.477 390.705 398.816C387.92 399.451 383.698 399.146 382.577 400.866C373.349 415.026 364.695 429.562 355.84 444.034M391.259 360.424C399.39 376.251 406.142 388.984 412.39 401.963C413.33 403.914 412.61 407.352 411.5 409.502C402.96 425.989 394.243 442.384 385.316 458.666C383.432 462.104 381.087 466.28 377.866 467.777C371.869 470.569 363.851 474.638 358.927 472.637C353.232 470.324 346.481 462.104 346.36 456.317C346.087 443.314 346.512 428.601 352.302 417.538C362.393 398.259 376.744 381.207 391.259 360.424" fill="#edaa1e" fill-rule="nonzero" opacity="1" stroke="none" vectornator:layerName="path"></path><path d="M452.389 143.917C457.367 140.153 462.419 133.387 467.294 133.515C471.704 133.628 479.555 141.497 479.304 145.531C478.985 150.63 472.598 158.258 467.688 159.28C463.416 160.167 457.551 153.379 452.389 149.984L452.389 143.917Z" fill="#edaa1e" fill-rule="nonzero" opacity="1" stroke="none" vectornator:layerName="path"></path></g></svg>